# xmcd
#
# Track frame offsets: 
#        150
#        14633
#        32012
#        47401
#        61278
#        79282
#        90632
#        109732
#        126278
#        141796
#        156589
#        173606
#
# Disc length: 2524 seconds
#
# Revision: 0
# Processed by: cddbd v1.5.2PL0 Copyright (c) Steve Scherf et al.
# Submitted via: ExactAudioCopyFreeDBPlugin 1.0
#
DISCID=9d09da0c
DTITLE=Caudia Scott - Follow The Lines
DYEAR=2014
DGENRE=Country
TTITLE0=Circle the Sun
TTITLE1=Follow the Lines
TTITLE2=Bad Seed
TTITLE3=Mr. Bones
TTITLE4=The Devil's House
TTITLE5=I can't Wait
TTITLE6=California Blue
TTITLE7=The Price you Pay
TTITLE8=Back to you Again
TTITLE9=Tiny Words
TTITLE10=Love
TTITLE11=Someday Soon
EXTD=
EXTT0=
EXTT1=
EXTT2=
EXTT3=
EXTT4=
EXTT5=
EXTT6=
EXTT7=
EXTT8=
EXTT9=
EXTT10=
EXTT11=
PLAYORDER=
